<?xml version="1.0" encoding="utf-8"?>
<svg version="1.1" id="Ebene_1" xmlns="http://www.w3.org/2000/svg" xmlns:xlink="http://www.w3.org/1999/xlink" x="0px" y="0px"
	 viewBox="0 0 500 500" style="enable-background:new 0 0 500 500;" xml:space="preserve">
<style type="text/css">
	.st0{fill:#FFFFFF;}
</style>
<g>
	<path class="st0" d="M436.35,427.81l-8.54,8.54c-30.41,30.41-80.17,30.41-110.58,0L63.65,182.77c-30.41-30.41-30.41-80.17,0-110.58
		l8.54-8.54c30.41-30.41,80.17-30.41,110.58,0l253.58,253.58C466.76,347.64,466.76,397.4,436.35,427.81z"/>
	<path d="M127.48,51.82c18.01,0,34.89,6.96,47.53,19.59l253.58,253.58c12.63,12.63,19.59,29.51,19.59,47.53
		c0,18.01-6.96,34.89-19.59,47.53l-8.54,8.54c-12.63,12.63-29.51,19.59-47.53,19.59c-18.01,0-34.89-6.96-47.53-19.59L71.41,175.01
		c-12.63-12.63-19.59-29.51-19.59-47.53s6.96-34.89,19.59-47.53l8.54-8.54C92.59,58.78,109.47,51.82,127.48,51.82 M127.48,40.84
		c-20.04,0-40.09,7.6-55.29,22.81l-8.54,8.54c-30.41,30.41-30.41,80.17,0,110.58l253.58,253.58c15.2,15.2,35.25,22.81,55.29,22.81
		c20.04,0,40.09-7.6,55.29-22.81l8.54-8.54c30.41-30.41,30.41-80.17,0-110.58L182.77,63.65C167.57,48.44,147.52,40.84,127.48,40.84
		L127.48,40.84z"/>
</g>
<path class="st0" d="M439.5,86.16c-24.21,35.54-73.11,44.81-108.65,20.59l-9.99-6.8c-8.07-5.5-14.78-12.28-20.05-19.89L63.65,317.23
	c-30.41,30.41-30.41,80.17,0,110.58l8.54,8.54c30.41,30.41,80.17,30.41,110.58,0l253.58-253.58c27.82-27.82,30.17-71.82,7.09-102.4
	L439.5,86.16z"/>
<g>
	<path d="M336.65,255.72l-80.94,81.15c-3.14,3.15-8.28,3.15-11.42,0l-80.94-81.15c-3.14-3.15-3.14-8.3,0-11.45l80.94-81.15
		c3.14-3.15,8.28-3.15,11.42,0l80.94,81.15C339.78,247.42,339.78,252.58,336.65,255.72z"/>
</g>
<g>
	<g>
		
			<ellipse transform="matrix(0.7071 -0.7071 0.7071 0.7071 -94.6838 228.5868)" class="st0" cx="228.59" cy="228.59" rx="12.91" ry="12.88"/>
	</g>
	<g>
		
			<ellipse transform="matrix(0.7071 -0.7071 0.7071 0.7071 -82.0846 258.8927)" class="st0" cx="271.47" cy="228.53" rx="12.91" ry="12.88"/>
	</g>
	<g>
		
			<ellipse transform="matrix(0.7071 -0.7071 0.7071 0.7071 -125.0222 241.1073)" class="st0" cx="228.53" cy="271.47" rx="12.91" ry="12.88"/>
	</g>
	<g>
		
			<ellipse transform="matrix(0.7071 -0.7071 0.7071 0.7071 -112.423 271.4132)" class="st0" cx="271.41" cy="271.41" rx="12.91" ry="12.88"/>
	</g>
</g>
<path d="M444.16,81.37l0.01-0.7l-0.51,0c-0.07-0.1-0.14-0.2-0.21-0.29l-0.2,0.29l-142.4-1.01l0,0.44c-0.01-0.01-0.02-0.02-0.02-0.03
	L63.65,317.23c-30.41,30.41-30.41,80.17,0,110.58l8.54,8.54c15.2,15.2,35.25,22.81,55.29,22.81c20.04,0,40.09-7.6,55.29-22.81
	l253.58-253.58C463.87,155.25,466.45,111.9,444.16,81.37z M435.44,91.58c-15.23,18.66-37.83,28.67-60.75,28.67
	c-15.15,0-30.44-4.37-43.84-13.5l-9.99-6.8c-4.08-2.78-7.8-5.88-11.17-9.26L435.44,91.58z M428.59,175.01L175.01,428.59
	c-12.63,12.63-29.51,19.59-47.53,19.59s-34.89-6.96-47.53-19.59l-8.54-8.54c-12.63-12.63-19.59-29.51-19.59-47.53
	s6.96-34.89,19.59-47.53L299.97,96.43c4.42,4.71,9.34,8.92,14.72,12.59l9.99,6.8c14.79,10.08,32.09,15.4,50.02,15.4
	c26.29,0,50.97-11.41,67.79-30.95C453.43,125.15,448.45,155.15,428.59,175.01z"/>
<g>
	<path class="st0" d="M92.92,81.76c15.55-16.23,43.61-26.37,73.01,0.68"/>
	<path d="M165.93,87.93c-1.33,0-2.66-0.48-3.71-1.45c-25.95-23.86-50.77-16.12-65.34-0.92c-2.1,2.19-5.57,2.26-7.76,0.17
		c-2.19-2.1-2.26-5.57-0.17-7.76c17.33-18.09,48.87-28.83,80.69,0.43c2.23,2.05,2.38,5.52,0.33,7.75
		C168.89,87.33,167.41,87.93,165.93,87.93z"/>
</g>
<g>
	<path class="st0" d="M165.58,418.22c-13.51,15.43-43.6,23.88-64.22,6.98"/>
	<path d="M128.22,439.95c-10.67,0-21.39-3.18-30.34-10.51c-2.34-1.92-2.69-5.38-0.77-7.72c1.92-2.34,5.38-2.68,7.72-0.77
		c18.41,15.09,45.38,6.47,56.61-6.35c2-2.28,5.46-2.51,7.75-0.51c2.28,2,2.51,5.46,0.51,7.75
		C160.1,432.81,144.22,439.95,128.22,439.95z"/>
</g>
</svg>
